<?xml version="1.0" standalone="no"?>
<!DOCTYPE svg PUBLIC "-//W3C//DTD SVG 20010904//EN"
 "http://www.w3.org/TR/2001/REC-SVG-20010904/DTD/svg10.dtd">
<svg version="1.0" xmlns="http://www.w3.org/2000/svg"
 width="700.000000pt" height="700.000000pt" viewBox="0 0 700.000000 700.000000"
 preserveAspectRatio="xMidYMid meet">
<metadata>
Created by potrace 1.14, written by Peter Selinger 2001-2017
</metadata>
<g transform="translate(0.000000,700.000000) scale(0.100000,-0.100000)"
fill="#000000" stroke="none">
<path d="M3080 6983 c-184 -14 -507 -91 -765 -183 -738 -262 -1369 -775 -1803
-1464 -142 -225 -305 -594 -385 -871 -98 -338 -112 -458 -112 -965 0 -515 12
-613 112 -960 127 -443 350 -874 641 -1240 107 -135 426 -449 562 -554 418
-322 842 -528 1363 -660 233 -59 411 -76 807 -76 407 0 594 19 847 85 653 171
1197 485 1659 956 416 426 689 896 868 1497 90 302 104 407 113 832 9 474 -10
690 -82 967 -132 505 -342 927 -675 1355 -95 123 -427 450 -560 552 -349 269
-661 436 -1065 571 -318 107 -469 137 -765 155 -151 9 -653 11 -760 3z m1197
-488 c26 -18 33 -57 42 -228 l6 -121 254 -22 c605 -53 942 -148 1193 -337 236
-178 358 -445 358 -787 0 -263 -84 -481 -252 -656 -128 -133 -288 -231 -490
-300 -164 -56 -382 -89 -859 -130 l-206 -18 -6 -156 c-6 -175 -19 -225 -61
-236 -36 -9 -79 16 -87 51 -4 17 -12 84 -17 151 -5 66 -15 131 -21 142 -30 56
-92 66 -448 77 l-223 7 0 -854 c0 -470 -3 -997 -7 -1171 l-6 -317 -54 0 -53 0
-1 873 c0 859 -10 1435 -24 1470 -4 9 -19 21 -34 25 -35 9 -582 8 -693 -2 -47
-4 -94 -13 -104 -20 -26 -19 -33 -178 -33 -789 l-1 -538 -57 3 -58 3 -6 580
c-3 319 -7 622 -8 673 l-1 93 -470 -3 c-416 -3 -471 -5 -485 -19 -28 -28 -34
-271 -35 -1341 l0 -1008 -61 0 -61 0 4 1245 c2 684 6 1246 9 1249 3 3 249 12
548 20 299 8 545 17 547 19 3 2 9 199 14 438 11 521 17 643 35 730 37 182 192
409 356 520 253 172 593 262 1169 312 l255 22 6 157 c7 181 16 208 72 208 18
0 42 -7 54 -15z"/>
<path d="M4320 5019 l0 -962 213 6 c484 12 879 105 1107 260 120 82 241 229
292 355 22 55 23 68 23 342 l0 285 -32 67 c-154 326 -467 498 -1034 567 -74 9
-502 41 -551 41 -17 0 -18 -37 -18 -961z"/>
<path d="M3795 5963 c-532 -42 -860 -147 -1082 -347 -91 -82 -176 -239 -204
-375 -15 -72 -8 -85 54 -96 23 -4 344 -11 712 -15 459 -5 682 -11 707 -19 44
-14 60 -39 56 -84 l-3 -32 -720 -6 c-712 -6 -763 -8 -801 -40 -19 -15 -18
-115 2 -199 59 -251 286 -458 624 -569 210 -69 406 -96 766 -106 l231 -7 6
338 c4 187 7 615 7 952 l0 612 -157 -2 c-87 -1 -176 -3 -198 -5z"/>
</g>
</svg>
