<?xml version="1.0" standalone="no"?>
<!DOCTYPE svg PUBLIC "-//W3C//DTD SVG 20010904//EN"
 "http://www.w3.org/TR/2001/REC-SVG-20010904/DTD/svg10.dtd">
<svg version="1.0" xmlns="http://www.w3.org/2000/svg"
 width="300.000000pt" height="300.000000pt" viewBox="0 0 300 300"
 preserveAspectRatio="xMidYMid meet">
 <circle fill="#fff" cx="150" cy="150" r="150"/>
<g transform="translate(0,300) scale(0.1,-0.1)"
fill="#000000" stroke="none">
<path d="M1260 2986 c-333 -60 -616 -209 -841 -442 -203 -212 -333 -459 -396
-754 -26 -121 -26 -459 0 -580 100 -470 390 -847 813 -1059 97 -48 255 -103
374 -128 121 -26 459 -26 580 0 470 100 847 390 1059 813 48 97 103 255 128
374 26 121 26 459 0 580 -100 470 -390 847 -813 1059 -92 46 -252 101 -364
126 -102 23 -436 29 -540 11z m584 -218 c3 -13 6 -48 6 -78 l0 -56 143 -12
c402 -33 593 -155 629 -401 36 -246 -92 -428 -350 -500 -40 -11 -128 -25 -195
-31 -67 -6 -146 -14 -174 -16 l-53 -5 0 -62 c0 -90 -7 -109 -39 -105 -25 3
-26 6 -31 82 -6 95 1 92 -176 97 l-119 4 -3 -502 -2 -503 -25 0 -25 0 0 504
c0 450 -2 505 -16 510 -31 12 -339 7 -352 -6 -9 -9 -12 -87 -12 -290 l0 -278
-25 0 -25 0 -2 288 -3 287 -199 3 c-138 2 -203 -1 -212 -9 -12 -9 -14 -99 -14
-510 l0 -499 -25 0 -25 0 0 535 c0 294 1 536 3 537 1 1 108 4 237 7 l235 6 5
250 c5 242 6 252 32 309 14 33 47 84 72 113 89 100 271 164 533 185 l143 12 0
71 c0 78 3 85 36 85 14 0 24 -8 28 -22z"/>
<path d="M1590 2553 c-231 -22 -369 -76 -453 -173 -36 -42 -73 -139 -63 -165
5 -13 49 -15 299 -15 336 0 357 -2 357 -36 l0 -24 -304 0 c-184 0 -315 -4
-332 -10 -25 -10 -26 -14 -22 -59 19 -195 237 -319 568 -324 l135 -2 3 408 2
407 -77 -2 c-43 0 -94 -3 -113 -5z"/>
<path d="M1850 2152 l0 -412 88 0 c98 0 250 21 332 46 127 38 211 99 258 189
25 46 27 59 27 175 0 120 -1 127 -29 178 -79 142 -245 211 -554 228 l-122 7 0
-411z"/>
</g>
</svg>
