<svg xmlns="http://www.w3.org/2000/svg" xmlns:xlink="http://www.w3.org/1999/xlink" preserveAspectRatio="" version="1.0" viewBox="0 0 400 250"><g id="bgCover" opacity="0.7" transform='rotate(-65 324 67)'><path d="M448.045,133.465c-0.187-0.176-18.897-17.764-42.238-31.686c-31.012-18.5-56.102-22.146-72.552-10.548 c-6.954,4.903-14.809,13.809-23.152,23.976c-0.314,0.359-0.628,0.716-0.943,1.079c-0.311,0.334-0.62,0.662-0.932,1 c-0.333,0.335-0.665,0.667-0.999,1.006c-0.234,0.22-0.468,0.441-0.702,0.662c-0.274,0.24-0.549,0.483-0.823,0.724 c-0.272,0.22-0.544,0.445-0.816,0.666c-0.275,0.205-0.549,0.415-0.824,0.621c-0.268,0.182-0.535,0.371-0.803,0.555 c-0.342,0.211-0.683,0.429-1.024,0.643c-0.215,0.119-0.427,0.242-0.641,0.362c-0.262,0.128-0.521,0.261-0.782,0.39 c-0.276,0.118-0.548,0.241-0.824,0.36c-4.63,1.694-9.128,3.564-13.448,5.364c-14.977,6.237-27.912,11.625-36.585,5.282 c-8.433-6.167-5.111-20.854-1.267-37.86c5.161-22.829,11.011-48.703-10.18-61.925c-1.606-1.002-3.305-1.788-5.07-2.416 c-0.057-0.035-0.109-0.073-0.166-0.108c-1.508-0.909-3.095-1.631-4.741-2.211c-0.168-0.102-0.325-0.212-0.496-0.312 c-1.406-0.818-2.876-1.481-4.399-2.013c-0.281-0.169-0.55-0.348-0.839-0.51c-1.283-0.72-2.618-1.311-3.996-1.794 c-0.41-0.247-0.814-0.499-1.241-0.73c-1.12-0.605-2.284-1.097-3.474-1.521c-0.572-0.35-1.157-0.688-1.764-1.003 c-0.988-0.513-2.012-0.931-3.053-1.304c-0.705-0.431-1.429-0.843-2.185-1.22c-0.875-0.436-1.779-0.796-2.694-1.122 c-0.819-0.502-1.659-0.979-2.544-1.402c-0.763-0.365-1.546-0.673-2.339-0.954c-0.93-0.571-1.887-1.107-2.9-1.569 c-0.647-0.296-1.305-0.56-1.973-0.795c-1.043-0.643-2.124-1.231-3.266-1.729c-0.471-0.205-0.953-0.377-1.435-0.551 c-1.205-0.759-2.471-1.42-3.803-1.973c-0.354-0.147-0.717-0.263-1.077-0.391c-1.318-0.835-2.699-1.556-4.163-2.132 c-0.241-0.095-0.489-0.165-0.732-0.251c-1.425-0.907-2.919-1.681-4.507-2.272c-0.128-0.047-0.259-0.08-0.388-0.125 c-1.532-0.979-3.14-1.798-4.852-2.398C150.411-5.678,122.557,16.273,95.62,37.5C78.474,51.01,62.28,63.772,49.486,67.835 c-7.518,2.388-14.303,2.244-20.255,0.683c-9.68-22.586-9.867-49.892-9.867-50.336c0-0.276-0.224-0.5-0.5-0.5 c-0.276,0-0.5,0.224-0.5,0.5c0,0.159,0.047,13.993,3.465,30.038c-3.524-14.884-3.871-27.576-3.877-27.872 c-0.006-0.276-0.232-0.495-0.51-0.49c-0.276,0.006-0.495,0.234-0.49,0.51c0.003,0.154,0.329,13.796,4.139,29.359 c-3.919-14.42-4.54-26.928-4.553-27.215c-0.012-0.276-0.251-0.493-0.521-0.478c-0.276,0.012-0.49,0.245-0.478,0.521 c0.006,0.148,0.624,13.492,4.805,28.487c-4.291-13.866-5.201-26.089-5.219-26.366c-0.019-0.275-0.245-0.471-0.533-0.465 c-0.275,0.019-0.484,0.257-0.465,0.533c0.01,0.143,0.926,13.084,5.449,27.427c-4.633-13.23-5.839-25.067-5.864-25.332 c-0.026-0.274-0.265-0.484-0.545-0.451c-0.275,0.026-0.477,0.27-0.451,0.544c0.027,0.286,1.409,13.872,6.933,28.308 C14.005,41.914,12.331,29.267,12.297,29c-0.034-0.274-0.284-0.468-0.558-0.434c-0.274,0.034-0.468,0.284-0.434,0.558 c0.034,0.274,1.773,13.413,7.698,27.117c-6.047-12.606-8.08-24.826-8.121-25.081c-0.042-0.272-0.299-0.459-0.572-0.416 c-0.273,0.043-0.459,0.299-0.416,0.572c0.042,0.269,2.262,13.638,9,26.947c-0.017-0.03-0.035-0.058-0.052-0.088 c-6.835-12.171-9.352-24.731-9.376-24.857c-0.053-0.271-0.32-0.45-0.587-0.395c-0.271,0.053-0.448,0.316-0.395,0.587 c0.024,0.122,2.382,11.892,8.719,23.751c-6.48-10.81-9.127-21.674-9.155-21.787c-0.064-0.268-0.334-0.433-0.603-0.37 c-0.269,0.064-0.434,0.334-0.37,0.603c0.027,0.115,2.719,11.174,9.317,22.149c-6.75-9.94-9.732-20.122-9.763-20.227 c-0.076-0.265-0.351-0.419-0.619-0.342c-0.266,0.077-0.419,0.354-0.342,0.619c0.031,0.107,3.047,10.415,9.879,20.486 C8.554,49.339,5.245,39.879,5.211,39.781c-0.09-0.262-0.375-0.4-0.636-0.31c-0.261,0.09-0.399,0.375-0.31,0.635 c0.034,0.099,3.368,9.639,10.418,18.8C7.463,50.745,3.826,42.021,3.788,41.93c-0.104-0.257-0.398-0.38-0.652-0.273 c-0.256,0.104-0.378,0.396-0.273,0.652c0.036,0.089,3.473,8.354,10.307,16.386C6.143,51.636,2.44,44.236,2.362,44.077 c-0.12-0.248-0.417-0.351-0.668-0.23c-0.248,0.121-0.351,0.42-0.23,0.668c0.08,0.165,3.954,7.918,11.324,15.208 C5.203,53.4,1.018,46.369,0.932,46.221c-0.139-0.239-0.445-0.32-0.684-0.181c-0.238,0.139-0.319,0.444-0.181,0.683 C0.186,46.927,7.845,59.808,21.36,66.59c0.174,0.109,0.349,0.216,0.525,0.323c0.647,0.475,1.292,0.925,1.937,1.346 c0.258,0.202,0.522,0.386,0.783,0.581c0.393,0.347,0.791,0.679,1.19,1.007c0.396,0.38,0.788,0.774,1.191,1.134 c0.423,0.437,0.851,0.86,1.283,1.272c0.225,0.249,0.454,0.496,0.684,0.74c0.241,0.292,0.486,0.58,0.733,0.866 c0.175,0.229,0.353,0.455,0.532,0.681c0.539,0.759,1.089,1.495,1.65,2.206c0.313,0.444,0.63,0.881,0.951,1.309 c0.286,0.425,0.576,0.842,0.869,1.253c6.936,10.811,15.976,17.369,26.782,19.275c1.899,0.335,3.872,0.495,5.918,0.495 c21.264-0.002,50.052-17.26,77.97-33.999c16.961-10.169,34.193-20.494,49.893-27.083c4.335,14.789,7.293,32.407,10.201,49.767 c6.62,39.522,13.464,80.39,36.659,85.763c1.421,0.329,2.854,0.486,4.305,0.486c18.569-0.004,39.406-25.876,57.945-48.9 c0.722-0.897,1.442-1.79,2.159-2.68c8.864-2.86,18.128-4.756,27.486-3.989c30.867,2.547,55.409,32.107,70.562,56.457 c16.459,26.45,25.701,52.639,25.793,52.9c0.072,0.206,0.265,0.335,0.472,0.335c0.055,0,0.11-0.009,0.165-0.028 c0.261-0.091,0.398-0.376,0.307-0.637c-0.092-0.263-9.364-26.541-25.878-53.083c-27.676-44.481-54.07-55.517-71.339-56.94 c-5.994-0.494-11.931,0.088-17.742,1.302c5.846-1.619,11.786-2.559,17.72-2.328c30.058,1.171,55,29.396,70.632,52.868 c16.98,25.499,26.944,51.055,27.043,51.311c0.077,0.198,0.267,0.319,0.467,0.319c0.06,0,0.121-0.011,0.181-0.033 c0.257-0.1,0.386-0.39,0.286-0.647c-0.1-0.256-10.097-25.9-27.135-51.489c-28.558-42.888-54.608-52.672-71.435-53.328 c-5.698-0.219-11.38,0.624-16.971,2.09c5.643-1.876,11.345-3.077,16.993-3.114c0.105,0,0.208-0.001,0.313-0.001 c29.108,0,54.33,26.779,70.383,49.29c17.505,24.545,28.193,49.465,28.3,49.714c0.081,0.189,0.266,0.304,0.46,0.304 c0.065,0,0.132-0.013,0.196-0.04c0.254-0.108,0.372-0.401,0.264-0.656c-0.106-0.249-10.831-25.255-28.396-49.889 c-16.193-22.71-41.665-49.722-71.207-49.722c-0.105,0-0.215,0-0.319,0.001c-5.541,0.037-11.115,1.174-16.626,2.951 c5.553-2.192,11.127-3.672,16.694-3.975c28.385-1.569,54.164,24.007,70.756,45.716c18.029,23.59,29.445,47.867,29.559,48.11 c0.085,0.182,0.266,0.288,0.453,0.288c0.071,0,0.144-0.015,0.212-0.047c0.25-0.117,0.358-0.414,0.241-0.665 c-0.113-0.243-11.568-24.605-29.66-48.28c-16.741-21.908-42.785-47.685-71.615-46.121c-5.215,0.284-10.5,1.635-15.754,3.611 c5.312-2.393,10.617-4.088,15.871-4.638c52.895-5.528,101.153,87.709,101.635,88.651c0.089,0.173,0.264,0.272,0.445,0.272 c0.077,0,0.154-0.018,0.228-0.055c0.246-0.126,0.344-0.427,0.218-0.673c-0.121-0.236-12.309-23.949-30.928-46.663 c-17.231-21.021-43.662-45.463-71.701-42.527c-4.706,0.492-9.436,1.884-14.165,3.853c4.826-2.384,9.62-4.144,14.334-4.886 c51.325-8.077,102.441,82.562,102.952,83.478c0.091,0.164,0.262,0.257,0.437,0.257c0.083,0,0.166-0.021,0.243-0.063 c0.241-0.134,0.328-0.438,0.193-0.68c-0.128-0.23-13.049-23.288-32.197-45.037c-17.722-20.131-44.556-43.225-71.784-38.942 c-4.347,0.685-8.746,2.196-13.165,4.263c4.531-2.484,9.011-4.371,13.385-5.303c25.938-5.523,52.886,16.016,70.922,35.063 c19.606,20.705,33.215,43.021,33.35,43.243c0.094,0.155,0.259,0.241,0.428,0.241c0.089,0,0.178-0.023,0.259-0.072 c0.236-0.144,0.312-0.451,0.169-0.687c-0.136-0.225-13.791-22.619-33.468-43.401c-18.216-19.238-45.471-40.984-71.868-35.365 c-4.059,0.865-8.192,2.521-12.364,4.705c4.301-2.611,8.533-4.641,12.637-5.757c25.122-6.826,52.46,13.382,70.978,31.535 c20.133,19.736,34.471,41.385,34.613,41.602c0.097,0.146,0.256,0.225,0.418,0.225c0.095,0,0.19-0.026,0.275-0.082 c0.23-0.152,0.294-0.462,0.143-0.693c-0.144-0.217-14.531-21.942-34.737-41.754c-18.707-18.342-46.381-38.748-71.951-31.797 c-3.771,1.025-7.635,2.8-11.551,5.071c4.063-2.711,8.043-4.859,11.878-6.138c24.293-8.106,52.039,10.762,71.037,28.019 c20.658,18.765,35.725,39.739,35.874,39.949c0.098,0.137,0.252,0.209,0.407,0.209c0.101,0,0.202-0.03,0.291-0.093 c0.225-0.161,0.276-0.473,0.116-0.698c-0.15-0.21-15.271-21.26-36.004-40.097c-27.533-25.013-52.444-34.779-72.038-28.238 c-3.477,1.16-7.062,3.022-10.709,5.346c3.812-2.775,7.53-5.009,11.091-6.431c23.482-9.377,51.625,8.156,71.102,24.513 c21.181,17.79,36.973,38.084,37.13,38.286c0.099,0.128,0.246,0.194,0.396,0.194c0.107,0,0.215-0.034,0.306-0.104 c0.219-0.169,0.259-0.483,0.09-0.701c-0.157-0.204-16.006-20.571-37.266-38.43c-28.234-23.717-53.173-32.253-72.128-24.687 c-3.25,1.298-6.62,3.266-10.063,5.676c3.608-2.863,7.113-5.196,10.498-6.783c22.674-10.627,51.221,5.562,71.174,21.02 c21.703,16.813,38.216,36.419,38.38,36.615c0.179,0.211,0.492,0.239,0.705,0.062c0.212-0.177,0.239-0.492,0.062-0.704 c-0.164-0.196-16.736-19.875-38.521-36.753c-28.936-22.419-53.91-29.729-72.223-21.145c-2.803,1.314-5.68,3.128-8.621,5.315 c3.138-2.646,6.182-4.858,9.109-6.446c21.885-11.873,50.828,2.981,71.255,17.534c22.221,15.832,39.45,34.747,39.622,34.936 c0.187,0.205,0.503,0.221,0.706,0.034c0.204-0.185,0.22-0.501,0.034-0.706c-0.172-0.189-17.463-19.175-39.77-35.069 c-29.633-21.115-54.643-27.203-72.324-17.608c-2.494,1.353-5.063,3.141-7.697,5.255c2.847-2.584,5.601-4.776,8.237-6.414 c21.107-13.112,50.449,0.407,71.347,14.055c22.736,14.85,40.675,33.069,40.854,33.251c0.192,0.198,0.511,0.2,0.707,0.008 c0.197-0.193,0.201-0.51,0.008-0.707c-0.18-0.184-18.184-18.471-41.009-33.38c-30.324-19.808-55.37-24.676-72.434-14.076 c-2.212,1.374-4.501,3.131-6.851,5.166c2.58-2.519,5.068-4.683,7.44-6.356c20.342-14.341,50.084-2.162,71.45,10.582 c23.249,13.866,41.891,31.387,42.076,31.562c0.201,0.191,0.517,0.18,0.707-0.02C448.254,133.971,448.245,133.654,448.045,133.465z M191.683,13.358c0.305,0.243,0.609,0.488,0.906,0.745c-0.399-0.03-0.794-0.07-1.198-0.084c-0.271-0.312-0.556-0.6-0.835-0.898 C190.936,13.189,191.31,13.273,191.683,13.358z M196.564,15.708c0.289,0.228,0.568,0.472,0.849,0.713 c-0.391-0.031-0.779-0.066-1.175-0.082c-0.266-0.303-0.538-0.598-0.812-0.888C195.81,15.521,196.185,15.62,196.564,15.708z M201.416,18.04c0.281,0.22,0.551,0.455,0.824,0.686c-0.381-0.031-0.764-0.059-1.151-0.076c-0.253-0.286-0.504-0.576-0.765-0.851 C200.693,17.868,201.054,17.956,201.416,18.04z M215.869,24.958c0.274,0.209,0.542,0.423,0.807,0.641 c-0.327-0.03-0.661-0.044-0.992-0.065c-0.238-0.262-0.491-0.509-0.737-0.763C215.255,24.833,215.566,24.886,215.869,24.958z M220.755,27.279c0.257,0.195,0.498,0.404,0.747,0.606c-0.351-0.033-0.704-0.059-1.059-0.082c-0.229-0.252-0.464-0.499-0.701-0.744 C220.081,27.128,220.42,27.198,220.755,27.279z M225.577,29.573c0.257,0.193,0.508,0.39,0.757,0.589 c-0.347-0.034-0.695-0.069-1.046-0.094c-0.22-0.239-0.434-0.483-0.662-0.715C224.946,29.419,225.261,29.497,225.577,29.573z M181.217,10.372c0.402,0.477,0.799,0.964,1.186,1.473c-19.425,1.727-44.023,18.714-67.98,35.271 c-22.862,15.799-44.457,30.723-60.63,32.151c-6.69,0.59-12.877-0.642-18.542-3.628c5.571,2.339,11.546,3.141,17.81,2.332 c15.756-2.038,36.374-16.616,58.203-32.051C136.194,28.292,161.842,10.166,181.217,10.372z M186.06,12.687 c0.398,0.47,0.793,0.946,1.176,1.447c-0.625,0.051-1.256,0.123-1.891,0.204c-0.352-0.551-0.707-1.096-1.072-1.62 C184.872,12.695,185.471,12.677,186.06,12.687z M192.058,16.417c-0.627,0.047-1.263,0.118-1.902,0.195 c-0.346-0.543-0.694-1.081-1.054-1.597c0.612-0.02,1.219-0.022,1.819-0.008C191.309,15.463,191.687,15.934,192.058,16.417z M205.476,21.931c0.37,0.426,0.732,0.863,1.083,1.313c-0.637,0.036-1.276,0.078-1.924,0.143c-0.323-0.508-0.657-1-0.996-1.486 C204.258,21.893,204.869,21.907,205.476,21.931z M215.193,26.502c0.364,0.412,0.722,0.829,1.066,1.262 c-0.643,0.028-1.287,0.058-1.942,0.115c-0.308-0.484-0.625-0.958-0.951-1.421C213.982,26.457,214.59,26.472,215.193,26.502z M246.843,146.684c10.364,5.159,23.594-2.305,37.789-11.689c-14.283,10.308-27.584,18.509-38.008,13.765 c-13.513-6.153-13.424-29.832-13.331-54.901c0.085-22.763,0.168-47.92-10.32-62.878c0.615,0.005,1.229,0.015,1.831,0.05 c12.564,14.048,11.605,40.051,10.732,63.404C234.656,117.973,233.825,140.205,246.843,146.684z M210.471,29.373 c0.328,0.626,0.647,1.266,0.955,1.92c-0.812,0.178-1.633,0.379-2.458,0.589c-0.288-0.702-0.588-1.388-0.894-2.065 C208.882,29.65,209.68,29.503,210.471,29.373z M207.651,28.896c-0.308-0.651-0.62-1.296-0.946-1.921 c0.757-0.115,1.504-0.205,2.246-0.283c0.353,0.573,0.698,1.157,1.031,1.758C209.212,28.581,208.435,28.731,207.651,28.896z M246.21,149.669c10.806,4.92,24.221-3.222,38.594-13.567c-14.471,11.284-27.967,20.169-38.844,15.629 c-14.605-6.097-15.271-31.572-15.978-58.543c-0.608-23.244-1.24-47.067-10.238-62.118c0.67-0.046,1.334-0.079,1.99-0.094 c10.729,14.623,10.644,39.976,10.558,62.879C232.198,119.256,232.109,143.248,246.21,149.669z M228.982,93.214 c0.715,27.304,1.39,53.094,16.593,59.44c11.251,4.701,24.85-4.107,39.393-15.412c-14.652,12.257-28.342,21.802-39.67,17.461 c-15.713-6.021-17.158-33.326-18.688-62.235c-1.194-22.577-2.426-45.68-10.279-61.045c0.776-0.107,1.541-0.189,2.301-0.259 C227.742,45.963,228.372,69.885,228.982,93.214z M225.611,92.521c1.547,29.242,3.009,56.862,19.329,63.116 c11.654,4.465,25.384-4.904,40.038-17.103c-14.416,12.809-28.68,23.249-40.343,19.143c-16.834-5.928-19.078-35.09-21.453-65.964 c-1.679-21.821-3.399-44.122-10.318-59.697c0.815-0.162,1.622-0.305,2.421-0.431C223.179,46.751,224.414,69.902,225.611,92.521z M212.438,31.092c-0.299-0.642-0.605-1.274-0.923-1.891c0.769-0.111,1.527-0.198,2.279-0.272c0.346,0.563,0.684,1.138,1.008,1.727 C214.021,30.783,213.232,30.931,212.438,31.092z M211.864,32.22c6.922,15.412,8.642,37.734,10.322,59.57 c2.401,31.208,4.669,60.686,22.118,66.831c12.027,4.231,26.399-6.12,40.892-18.945c-14.628,13.789-29.107,24.902-41.221,20.976 c-17.965-5.817-21.026-36.859-24.267-69.723c-2.072-21.012-4.195-42.447-10.371-58.114C210.186,32.599,211.029,32.399,211.864,32.22 z M219.154,30.118c-0.301-0.472-0.605-0.943-0.924-1.396c0.584,0.003,1.164,0.015,1.737,0.046c0.357,0.404,0.697,0.825,1.034,1.25 C220.389,30.041,219.776,30.068,219.154,30.118z M218.026,30.23c-0.72,0.074-1.445,0.162-2.178,0.268 c-0.306-0.568-0.625-1.12-0.951-1.665c0.697-0.052,1.391-0.099,2.074-0.116C217.333,29.209,217.685,29.713,218.026,30.23z M213.191,28.001c-0.717,0.078-1.439,0.17-2.169,0.281c-0.312-0.576-0.635-1.138-0.966-1.69c0.697-0.057,1.391-0.104,2.074-0.126 C212.495,26.964,212.848,27.477,213.191,28.001z M209.478,25.633c-0.316-0.497-0.647-0.976-0.979-1.451 c0.617-0.004,1.227,0.01,1.832,0.038c0.368,0.42,0.731,0.846,1.079,1.289C210.77,25.54,210.129,25.572,209.478,25.633z M208.364,25.766c-0.714,0.083-1.433,0.178-2.159,0.294c-0.319-0.585-0.646-1.159-0.982-1.719c0.697-0.062,1.389-0.111,2.072-0.137 C207.662,24.71,208.016,25.234,208.364,25.766z M203.543,23.522c-0.711,0.088-1.426,0.186-2.149,0.307 c-0.325-0.592-0.655-1.177-0.997-1.743c0.693-0.066,1.379-0.117,2.057-0.147C202.827,22.452,203.189,22.98,203.543,23.522z M199.803,21.139c-0.332-0.522-0.672-1.032-1.02-1.53c0.621-0.012,1.232,0.001,1.839,0.022c0.374,0.434,0.737,0.884,1.094,1.344 C201.084,21.014,200.446,21.07,199.803,21.139z M198.718,21.274c-0.704,0.092-1.411,0.194-2.127,0.318 c-0.333-0.603-0.669-1.201-1.017-1.777c0.683-0.07,1.359-0.122,2.028-0.156C197.982,20.185,198.357,20.719,198.718,21.274z M187.565,20.285c-18.507,4.786-40.502,19.078-62.014,33.067C99.295,70.425,74.489,86.548,56.369,86.138 c-6.485-0.148-12.049-2.023-16.821-5.002c4.507,2.324,9.648,3.714,15.512,3.714c0.153,0,0.31-0.001,0.465-0.003 c17.776-0.221,41.63-16.031,66.884-32.77c22.411-14.854,45.363-30.06,64.071-33.867C186.847,18.888,187.211,19.576,187.565,20.285z M187.492,18.018c0.728-0.133,1.451-0.252,2.165-0.348c0.378,0.61,0.746,1.24,1.108,1.881c-0.736,0.148-1.477,0.311-2.224,0.491 C188.198,19.352,187.848,18.679,187.492,18.018z M121.855,51.244C96.727,67.899,72.993,83.63,55.511,83.847 c-0.15,0.002-0.3,0.003-0.45,0.003c-6.504,0-12.103-1.763-16.916-4.638c5.127,2.483,10.67,3.63,16.557,3.344 c17.11-0.846,39.888-16.252,64.004-32.564c23.278-15.745,47.152-31.883,66.148-34.591c0.384,0.617,0.756,1.258,1.125,1.908 C167.105,21.266,144.214,36.425,121.855,51.244z M56.346,87.138c18.447,0.428,43.361-15.788,69.75-32.947 c21.532-14.002,43.551-28.308,61.907-32.994c0.348,0.723,0.69,1.459,1.024,2.212c-18.059,5.447-39.115,18.898-59.732,32.071 c-26.199,16.739-53.295,34.051-72.071,32.95c-6.51-0.354-12.068-2.43-16.811-5.617C45.004,85.395,50.28,86.999,56.346,87.138z M188.98,20.949c0.771-0.184,1.534-0.346,2.291-0.493c0.362,0.669,0.718,1.349,1.064,2.049c-0.776,0.194-1.56,0.408-2.349,0.634 C189.658,22.395,189.323,21.664,188.98,20.949z M192.285,20.266c0.733-0.128,1.462-0.244,2.181-0.336 c0.374,0.604,0.738,1.226,1.095,1.861c-0.743,0.144-1.491,0.303-2.246,0.48C192.979,21.587,192.635,20.921,192.285,20.266z M194.974,18.878c-0.34-0.534-0.685-1.059-1.039-1.567c0.622-0.016,1.234-0.005,1.843,0.013c0.376,0.44,0.739,0.902,1.099,1.368 C196.25,18.735,195.613,18.805,194.974,18.878z M193.887,19.014c-0.693,0.096-1.39,0.2-2.095,0.328 c-0.342-0.614-0.692-1.211-1.048-1.798c0.679-0.074,1.35-0.129,2.016-0.168C193.143,17.908,193.52,18.452,193.887,19.014z M189.066,16.752c-0.685,0.1-1.373,0.209-2.07,0.341c-0.351-0.627-0.712-1.23-1.077-1.828c0.675-0.079,1.342-0.137,2.004-0.18 C188.312,15.625,188.693,16.18,189.066,16.752z M184.252,14.479c-19.177,2.946-42.936,19.014-66.105,34.685 c-23.997,16.23-46.663,31.561-63.494,32.393c-6.641,0.33-12.749-1.132-18.299-4.327c5.442,2.545,11.319,3.585,17.528,3.034 c16.437-1.452,38.136-16.448,61.11-32.325c24.117-16.666,48.886-33.772,68.104-35.152C183.488,13.334,183.873,13.899,184.252,14.479 z M57.168,89.427c19.129,1.106,45.122-15.508,72.667-33.106c20.616-13.171,41.672-26.617,59.596-31.993 c0.329,0.765,0.65,1.546,0.966,2.339c-17.578,5.94-37.707,18.574-57.446,30.971c-27.266,17.124-55.468,34.825-74.87,33.083 c-6.243-0.543-11.586-2.654-16.164-5.799C46.325,87.472,51.376,89.112,57.168,89.427z M190.392,24.054 c0.798-0.228,1.59-0.439,2.374-0.633c0.339,0.712,0.671,1.436,0.995,2.177c-0.802,0.235-1.611,0.487-2.425,0.753 C191.027,25.573,190.714,24.805,190.392,24.054z M193.747,23.183c0.783-0.18,1.558-0.339,2.327-0.483 c0.35,0.654,0.689,1.328,1.023,2.011c-0.785,0.19-1.577,0.4-2.375,0.623C194.405,24.602,194.079,23.886,193.747,23.183z M197.087,22.512c0.74-0.124,1.474-0.234,2.199-0.322c0.367,0.594,0.724,1.202,1.073,1.826c-0.75,0.139-1.506,0.295-2.268,0.467 C197.766,23.811,197.429,23.157,197.087,22.512z M200.866,24.93c0.343,0.645,0.675,1.308,1.001,1.981 c-0.794,0.186-1.596,0.393-2.402,0.611c-0.308-0.721-0.625-1.428-0.949-2.123C199.307,25.224,200.09,25.069,200.866,24.93z M201.893,24.743c0.748-0.119,1.488-0.217,2.221-0.3c0.36,0.584,0.712,1.181,1.053,1.794c-0.758,0.135-1.523,0.288-2.295,0.456 C202.555,26.028,202.228,25.38,201.893,24.743z M205.666,27.157c0.335,0.635,0.66,1.286,0.977,1.949 c-0.802,0.182-1.614,0.386-2.429,0.6c-0.298-0.711-0.606-1.407-0.921-2.092C204.092,27.442,204.882,27.292,205.666,27.157z M207.084,30.027c0.314,0.689,0.619,1.391,0.915,2.107c-0.844,0.227-1.692,0.462-2.549,0.721c-0.278-0.753-0.564-1.494-0.858-2.222 C205.43,30.414,206.261,30.211,207.084,30.027z M208.362,33.055c6.156,15.532,8.278,36.966,10.35,57.971 c3.274,33.199,6.367,64.557,24.954,70.576c12.488,4.041,27.067-6.976,41.762-20.773c-14.833,14.776-29.523,26.548-42.113,22.795 c-19.104-5.69-23-38.631-27.125-73.506c-2.384-20.154-4.817-40.692-10.395-56.329C206.657,33.53,207.514,33.282,208.362,33.055z M238.704,94.94c-1.639,21.722-3.187,42.238,8.771,48.758c9.906,5.398,22.962-1.363,36.982-9.788 c-14.089,9.335-27.198,16.84-37.17,11.88c-12.439-6.191-11.62-28.111-10.753-51.317c0.864-23.131,1.815-48.835-10.291-63.32 c0.496,0.05,0.986,0.112,1.472,0.184C242.481,44.786,240.488,71.284,238.704,94.94z M229.481,31.633 c0.31,0.064,0.61,0.15,0.916,0.224c17.393,12.89,14.223,39.697,11.396,63.497c-2.475,20.826-4.61,38.811,6.314,45.355 c9.467,5.673,21.832-0.112,36.114-7.825c-13.87,8.35-26.767,15.114-36.267,9.934c-11.391-6.21-9.866-26.413-8.253-47.804 C241.459,71.701,243.418,45.659,229.481,31.633z M223.86,30.002c-0.535-0.016-1.068-0.039-1.612-0.033 c-0.285-0.377-0.587-0.738-0.887-1.1c0.505,0.048,1.001,0.115,1.496,0.186C223.196,29.367,223.538,29.675,223.86,30.002z M219.002,27.736c-0.503-0.013-1.008-0.021-1.519-0.014c-0.293-0.386-0.593-0.765-0.901-1.136c0.481,0.044,0.951,0.116,1.424,0.182 C218.344,27.084,218.679,27.404,219.002,27.736z M214.217,25.462c-0.523-0.011-1.053-0.007-1.584,0.003 c-0.298-0.396-0.597-0.791-0.91-1.17c0.507,0.044,1.003,0.114,1.5,0.182C213.564,24.795,213.892,25.127,214.217,25.462z M210.814,23.247c-0.24-0.268-0.485-0.53-0.734-0.788c0.322,0.063,0.649,0.116,0.966,0.19c0.287,0.218,0.581,0.429,0.859,0.658 C211.546,23.275,211.177,23.268,210.814,23.247z M209.377,23.178c-0.523-0.008-1.056,0.008-1.588,0.022 c-0.303-0.404-0.607-0.806-0.923-1.192c0.51,0.042,1.015,0.097,1.516,0.163C208.723,22.494,209.049,22.837,209.377,23.178z M205.95,20.954c-0.244-0.274-0.484-0.555-0.737-0.819c0.341,0.066,0.68,0.137,1.015,0.215c0.286,0.22,0.57,0.442,0.847,0.673 C206.704,20.992,206.327,20.974,205.95,20.954z M204.555,20.898c-0.528-0.006-1.066,0.013-1.602,0.03 c-0.313-0.42-0.637-0.822-0.963-1.223c0.506,0.039,1.012,0.078,1.508,0.142C203.856,20.189,204.211,20.536,204.555,20.898z M199.716,18.612c-0.533-0.003-1.073,0.012-1.615,0.033c-0.318-0.429-0.649-0.839-0.98-1.248c0.508,0.036,1.015,0.073,1.513,0.135 C199,17.884,199.365,18.238,199.716,18.612z M194.87,16.319c-0.535,0-1.076,0.013-1.62,0.038c-0.324-0.437-0.656-0.861-0.991-1.277 c0.514,0.034,1.026,0.076,1.53,0.137C194.155,15.573,194.517,15.939,194.87,16.319z M190.027,14.016 c-0.537,0.003-1.078,0.015-1.624,0.043c-0.328-0.445-0.661-0.881-1.001-1.304c0.52,0.032,1.035,0.078,1.545,0.138 C189.315,13.254,189.673,13.632,190.027,14.016z M186.537,11.71c-0.276-0.319-0.561-0.623-0.845-0.927 c0.373,0.066,0.746,0.133,1.113,0.216c0.321,0.257,0.647,0.506,0.959,0.78C187.357,11.749,186.949,11.722,186.537,11.71z M185.193,11.706c-0.539,0.006-1.08,0.017-1.628,0.049c-0.334-0.453-0.669-0.905-1.014-1.335c0.525,0.029,1.044,0.079,1.559,0.138 C184.48,10.923,184.836,11.316,185.193,11.706z M181.684,9.39c-0.281-0.326-0.565-0.647-0.853-0.958 c0.367,0.063,0.737,0.115,1.098,0.195c0.327,0.264,0.653,0.531,0.971,0.813C182.499,9.413,182.092,9.4,181.684,9.39z M180.365,9.385 c-19.61,0.328-44.992,18.262-69.678,35.718C88.962,60.464,68.443,74.972,52.933,76.978c-6.854,0.888-13.239-0.13-19.122-3.012 c5.809,2.217,11.995,2.821,18.431,1.71c15.068-2.6,34.601-16.752,55.28-31.735c25.729-18.643,52.238-37.839,71.72-35.734 C179.623,8.586,179.997,8.98,180.365,9.385z M106.936,43.131c-20.583,14.913-40.024,29-54.863,31.56 c-6.813,1.176-13.224,0.476-19.194-2.079c6.974,2.232,13.439,1.892,18.544,0.77c14.396-3.116,32.866-16.855,52.419-31.401 c26.452-19.677,53.75-39.974,73.271-35.694c0.315,0.257,0.623,0.53,0.931,0.804C158.312,5.91,132.246,24.792,106.936,43.131z M57.992,91.717c19.752,1.775,46.823-15.228,75.49-33.232c19.718-12.384,39.83-25.01,57.282-30.9 c0.31,0.802,0.611,1.621,0.909,2.448c-17.04,6.289-36.234,18.138-55.081,29.784c-28.328,17.505-57.617,35.607-77.657,33.196 c-6.174-0.729-11.453-2.969-15.968-6.224C47.553,89.584,52.577,91.247,57.992,91.717z M191.706,27.276 c0.822-0.267,1.639-0.523,2.448-0.759c0.32,0.759,0.633,1.532,0.94,2.319c-0.825,0.272-1.653,0.553-2.489,0.852 C192.311,28.873,192.012,28.068,191.706,27.276z M195.119,26.252c0.811-0.225,1.615-0.433,2.413-0.623 c0.331,0.705,0.655,1.421,0.97,2.154c-0.816,0.232-1.638,0.478-2.466,0.741C195.736,27.755,195.432,26.996,195.119,26.252z M198.885,28.704c0.311,0.752,0.615,1.516,0.911,2.295c-0.838,0.269-1.681,0.548-2.53,0.846c-0.282-0.807-0.568-1.608-0.864-2.391 C197.235,29.189,198.064,28.936,198.885,28.704z M199.853,28.447c0.824-0.221,1.642-0.427,2.452-0.614 c0.322,0.697,0.638,1.404,0.943,2.128c-0.831,0.229-1.666,0.469-2.509,0.73C200.451,29.931,200.156,29.182,199.853,28.447z M203.62,30.881c0.302,0.746,0.597,1.503,0.883,2.276c-0.852,0.267-1.709,0.544-2.573,0.84c-0.272-0.802-0.548-1.595-0.834-2.373 C201.943,31.361,202.786,31.11,203.62,30.881z M204.842,34.085c5.542,15.521,7.974,36.027,10.354,56.151 c4.165,35.211,8.098,68.47,27.833,74.348c1.697,0.505,3.425,0.744,5.182,0.744c11.602-0.001,24.419-10.418,37.316-23.19 c-14.992,15.699-29.853,28.034-42.873,24.462c-20.247-5.548-24.993-40.405-30.018-77.309c-2.623-19.264-5.297-38.868-10.392-54.359 C203.117,34.634,203.982,34.354,204.842,34.085z M248.621,139.852c-10.369-6.212-8.167-24.751-5.835-44.379 c2.753-23.177,5.829-49.175-9.861-62.873c0.024,0.008,0.048,0.016,0.071,0.024c20.314,12.484,15.795,39.334,11.801,63.038 c-3.211,19.051-5.984,35.504,3.94,42.058c8.986,5.936,21.168,0.872,35.27-5.856C269.885,139.5,257.681,145.279,248.621,139.852z M228.265,30.413c-0.025-0.004-0.05-0.008-0.075-0.012c-0.038-0.034-0.078-0.067-0.116-0.101c0.008,0.003,0.016,0.005,0.024,0.008 C228.154,30.342,228.209,30.378,228.265,30.413z M223.46,28.137c-0.045-0.007-0.091-0.014-0.136-0.021 c-0.052-0.047-0.1-0.096-0.153-0.143c0.013,0.005,0.027,0.008,0.04,0.012C223.295,28.037,223.378,28.087,223.46,28.137z M218.669,25.853c-0.068-0.011-0.138-0.018-0.206-0.029c-0.07-0.064-0.139-0.129-0.21-0.193c0.04,0.014,0.079,0.033,0.119,0.047 C218.47,25.738,218.573,25.793,218.669,25.853z M213.859,23.554c-0.062-0.01-0.126-0.015-0.188-0.024 c-0.063-0.057-0.128-0.112-0.191-0.169c0.061,0.021,0.121,0.046,0.182,0.068C213.729,23.47,213.793,23.513,213.859,23.554z M209.018,21.242c-0.062-0.009-0.127-0.012-0.189-0.021c-0.065-0.06-0.135-0.115-0.201-0.175c0.066,0.023,0.132,0.047,0.198,0.07 C208.891,21.157,208.953,21.201,209.018,21.242z M204.221,18.948c-0.087-0.013-0.172-0.034-0.26-0.046 c-0.064-0.06-0.123-0.126-0.187-0.185c0.059,0.02,0.119,0.039,0.178,0.06C204.043,18.833,204.132,18.891,204.221,18.948z M199.44,16.648c-0.113-0.017-0.224-0.039-0.337-0.055c-0.083-0.078-0.162-0.161-0.246-0.238c0.074,0.025,0.15,0.046,0.224,0.072 C199.2,16.501,199.322,16.572,199.44,16.648z M194.663,14.334c-0.139-0.02-0.277-0.043-0.416-0.061 c-0.101-0.096-0.202-0.194-0.304-0.289c0.089,0.03,0.182,0.051,0.27,0.082C194.361,14.158,194.517,14.238,194.663,14.334z M189.814,11.999c-0.138-0.02-0.278-0.037-0.417-0.055c-0.121-0.116-0.244-0.228-0.367-0.342c0.156,0.051,0.306,0.118,0.461,0.172 C189.602,11.844,189.705,11.927,189.814,11.999z M184.963,9.651c-0.136-0.019-0.275-0.03-0.411-0.047 c-0.127-0.123-0.259-0.235-0.388-0.355c0.149,0.049,0.294,0.108,0.442,0.16C184.727,9.486,184.844,9.572,184.963,9.651z M180.118,7.293c-0.139-0.019-0.282-0.025-0.422-0.042c-0.128-0.125-0.259-0.24-0.388-0.362c0.139,0.045,0.277,0.094,0.415,0.142 C179.856,7.117,179.987,7.205,180.118,7.293z M175.328,4.955c-19.785-2.672-46.331,17.067-72.082,36.223 C83.782,55.657,65.396,69.334,51.21,72.404c-6.909,1.52-13.472,1.085-19.649-1.252c5.612,1.556,11.97,1.825,19.045-0.067 c13.687-3.633,31.056-16.918,49.445-30.983c27.162-20.776,55.239-42.239,74.788-35.462C175.002,4.746,175.167,4.846,175.328,4.955z M58.817,94.007c20.381,2.45,49.826-15.745,78.301-33.339c18.809-11.622,37.965-23.448,54.888-29.7 c0.291,0.831,0.579,1.669,0.858,2.524c-16.45,6.509-34.699,17.604-52.641,28.52C110.834,79.894,80.445,98.382,59.79,95.306 c-6.028-0.891-11.184-3.21-15.602-6.497C48.646,91.632,53.536,93.383,58.817,94.007z M192.932,30.622 c0.847-0.304,1.686-0.589,2.521-0.863c0.3,0.794,0.591,1.604,0.877,2.423c-0.843,0.304-1.69,0.619-2.544,0.949 C193.508,32.282,193.222,31.448,192.932,30.622z M196.657,33.116c0.28,0.825,0.556,1.659,0.824,2.507 c-0.858,0.333-1.722,0.678-2.59,1.034c-0.262-0.872-0.531-1.731-0.804-2.582C194.95,33.742,195.805,33.424,196.657,33.116z M197.586,32.778c0.86-0.301,1.711-0.583,2.559-0.855c0.29,0.788,0.571,1.59,0.846,2.403c-0.856,0.302-1.717,0.615-2.584,0.943 C198.141,34.426,197.865,33.598,197.586,32.778z M201.31,35.264c5.053,15.386,7.718,34.946,10.335,54.163 c5.071,37.24,9.861,72.416,30.746,78.139c1.618,0.443,3.26,0.654,4.923,0.654c11.86,0,24.774-10.726,37.769-24.175 c-14.722,15.985-29.911,28.849-43.087,25.532c-21.395-5.393-27.266-43.893-32.944-81.125c-2.799-18.352-5.649-36.998-10.352-52.233 C199.575,35.886,200.445,35.57,201.31,35.264z M237.981,34.985c20.588,12.846,14.821,38.352,9.733,60.856 c-3.923,17.35-7.311,32.334,1.652,38.887c8.476,6.2,20.448,1.906,34.336-3.828c-13.881,6.627-25.852,11.637-34.415,5.985 c-9.381-6.196-6.658-22.351-3.506-41.058c3.75-22.248,7.944-47.226-8.06-60.988C237.807,34.891,237.897,34.932,237.981,34.985z M49.789,68.788c12.967-4.118,29.231-16.934,46.45-30.502c26.726-21.06,54.364-42.838,73.844-36.012 c0.349,0.122,0.684,0.277,1.026,0.416c-19.715-3.102-46.091,17.058-71.665,36.618c-18.307,14.002-35.6,27.229-49.095,30.811 c-7.168,1.918-13.587,1.553-19.22-0.137C36.707,71.09,42.95,70.959,49.789,68.788z M143.844,64.221 c-30.446,18.254-61.935,37.129-83.2,33.378c-5.919-1.044-10.984-3.449-15.327-6.787c4.359,2.872,9.146,4.717,14.327,5.483 c21.01,3.13,51.559-15.456,81.1-33.429c17.888-10.884,36.084-21.946,52.42-28.426c0.273,0.856,0.543,1.719,0.806,2.596 C178.162,43.652,160.867,54.015,143.844,64.221z M241.338,172.552c-22.545-5.223-29.334-45.755-35.899-84.954 c-2.918-17.424-5.887-35.105-10.264-49.983c0.87-0.358,1.736-0.705,2.596-1.039c4.66,15.139,7.501,33.73,10.292,52.025 c5.991,39.284,11.65,76.39,33.688,81.944c1.544,0.389,3.104,0.574,4.68,0.574c12.286,0,25.483-11.302,38.741-25.662 C270.278,162.33,254.918,175.704,241.338,172.552z" style="fill: rgb(158, 134, 253);"></path></g></svg>
